<svg xmlns="http://www.w3.org/2000/svg" style="display:none" aria-hidden="true">
  <symbol id="i-anvil" viewBox="0 0 24 24" fill="none" stroke="currentColor" stroke-width="1.8" stroke-linecap="round" stroke-linejoin="round"><path d="M4 15h16M6 15v-2.5c0-1 .6-1.7 1.6-1.9L15 9.2V6.5c0-.8.7-1.5 1.5-1.5h2c.8 0 1.5.7 1.5 1.5V9c0 .8-.6 1.5-1.4 1.6L15 11" /><path d="M9 15v3.5a1 1 0 0 0 1 1h1M14 15v3.5a1 1 0 0 1-1 1h-1"/></symbol>
  <symbol id="i-list" viewBox="0 0 24 24" fill="none" stroke="currentColor" stroke-width="1.8" stroke-linecap="round" stroke-linejoin="round"><path d="M8 6h12M8 12h12M8 18h12M4 6h.01M4 12h.01M4 18h.01"/></symbol>
  <symbol id="i-columns" viewBox="0 0 24 24" fill="none" stroke="currentColor" stroke-width="1.8" stroke-linecap="round" stroke-linejoin="round"><rect x="3.5" y="4.5" width="17" height="15" rx="2"/><path d="M9.5 4.5v15M15 4.5v15"/></symbol>
  <symbol id="i-route" viewBox="0 0 24 24" fill="none" stroke="currentColor" stroke-width="1.8" stroke-linecap="round" stroke-linejoin="round"><circle cx="6" cy="6" r="2.2"/><circle cx="18" cy="18" r="2.2"/><path d="M6 8.2v3a3 3 0 0 0 3 3h6a3 3 0 0 1 3 3v.6"/></symbol>
  <symbol id="i-bars" viewBox="0 0 24 24" fill="none" stroke="currentColor" stroke-width="1.8" stroke-linecap="round" stroke-linejoin="round"><path d="M5 20V10M12 20V4M19 20v-7"/></symbol>
  <symbol id="i-file" viewBox="0 0 24 24" fill="none" stroke="currentColor" stroke-width="1.8" stroke-linecap="round" stroke-linejoin="round"><path d="M7 3.5h7l3.5 3.5V19a1.2 1.2 0 0 1-1.2 1.2H7A1.2 1.2 0 0 1 5.8 19V4.7A1.2 1.2 0 0 1 7 3.5Z"/><path d="M14 3.5V7h3.5M8.5 12h7M8.5 15.5h5"/></symbol>
  <symbol id="i-search" viewBox="0 0 24 24" fill="none" stroke="currentColor" stroke-width="1.8" stroke-linecap="round" stroke-linejoin="round"><circle cx="11" cy="11" r="6.5"/><path d="M20 20l-4.3-4.3"/></symbol>
  <symbol id="i-bell" viewBox="0 0 24 24" fill="none" stroke="currentColor" stroke-width="1.8" stroke-linecap="round" stroke-linejoin="round"><path d="M7 16v-5a5 5 0 0 1 10 0v5l1.5 2.2h-13Z"/><path d="M10.3 20.5a1.8 1.8 0 0 0 3.4 0"/></symbol>
  <symbol id="i-chevron" viewBox="0 0 24 24" fill="none" stroke="currentColor" stroke-width="2" stroke-linecap="round" stroke-linejoin="round"><path d="M6 9l6 6 6-6"/></symbol>
  <symbol id="i-plus" viewBox="0 0 24 24" fill="none" stroke="currentColor" stroke-width="1.8" stroke-linecap="round" stroke-linejoin="round"><path d="M12 5v14M5 12h14"/></symbol>
  <symbol id="i-x" viewBox="0 0 24 24" fill="none" stroke="currentColor" stroke-width="2" stroke-linecap="round" stroke-linejoin="round"><path d="M6 6l12 12M18 6L6 18"/></symbol>
  <symbol id="i-link" viewBox="0 0 24 24" fill="none" stroke="currentColor" stroke-width="1.8" stroke-linecap="round" stroke-linejoin="round"><path d="M9.5 14.5l5-5"/><path d="M8 16.2 6 18a3 3 0 1 1-4.2-4.2l3-3a3 3 0 0 1 4.2 0"/><path d="M16 7.8 18 6a3 3 0 1 1 4.2 4.2l-3 3a3 3 0 0 1-4.2 0"/></symbol>
  <symbol id="i-check" viewBox="0 0 24 24" fill="none" stroke="currentColor" stroke-width="2.4" stroke-linecap="round" stroke-linejoin="round"><path d="M5 13l4.5 4.5L19 8"/></symbol>
  <symbol id="i-comment" viewBox="0 0 24 24" fill="none" stroke="currentColor" stroke-width="1.8" stroke-linecap="round" stroke-linejoin="round"><path d="M4 5.5h16v10.5H9.5L5.5 19.5V16H4Z"/></symbol>
  <symbol id="i-eye" viewBox="0 0 24 24" fill="none" stroke="currentColor" stroke-width="1.8" stroke-linecap="round" stroke-linejoin="round"><path d="M2.5 12S6 5.5 12 5.5 21.5 12 21.5 12 18 18.5 12 18.5 2.5 12 2.5 12Z"/><circle cx="12" cy="12" r="2.6"/></symbol>
  <symbol id="i-chevup2" viewBox="0 0 24 24" fill="none" stroke="currentColor" stroke-width="2.2" stroke-linecap="round" stroke-linejoin="round"><path d="M6 15l6-6 6 6M6 20l6-6 6 6"/></symbol>
  <symbol id="i-chevup" viewBox="0 0 24 24" fill="none" stroke="currentColor" stroke-width="2.2" stroke-linecap="round" stroke-linejoin="round"><path d="M6 15l6-6 6 6"/></symbol>
  <symbol id="i-minus" viewBox="0 0 24 24" fill="none" stroke="currentColor" stroke-width="2.2" stroke-linecap="round" stroke-linejoin="round"><path d="M6 12h12"/></symbol>
  <symbol id="i-chevdown" viewBox="0 0 24 24" fill="none" stroke="currentColor" stroke-width="2.2" stroke-linecap="round" stroke-linejoin="round"><path d="M6 9l6 6 6-6"/></symbol>
  <symbol id="i-clock" viewBox="0 0 24 24" fill="none" stroke="currentColor" stroke-width="1.8" stroke-linecap="round" stroke-linejoin="round"><circle cx="12" cy="12" r="8.2"/><path d="M12 7.5V12l3 2"/></symbol>
  <symbol id="i-grid" viewBox="0 0 24 24" fill="none" stroke="currentColor" stroke-width="1.8" stroke-linecap="round" stroke-linejoin="round"><rect x="4" y="4" width="7" height="7" rx="1.2"/><rect x="13" y="4" width="7" height="7" rx="1.2"/><rect x="4" y="13" width="7" height="7" rx="1.2"/><rect x="13" y="13" width="7" height="7" rx="1.2"/></symbol>
  <symbol id="i-lines" viewBox="0 0 24 24" fill="none" stroke="currentColor" stroke-width="1.8" stroke-linecap="round" stroke-linejoin="round"><path d="M4 6h16M4 12h16M4 18h16"/></symbol>
  <symbol id="i-bug" viewBox="0 0 24 24" fill="none" stroke="currentColor" stroke-width="2" stroke-linecap="round" stroke-linejoin="round"><rect x="8" y="8" width="8" height="9" rx="4"/><path d="M12 8V5.5M9 9l-2-2M15 9l2-2M6 12H4M20 12h-2M6 16l-1.5 1.5M18 16l1.5 1.5"/></symbol>
  <symbol id="i-story" viewBox="0 0 24 24" fill="none" stroke="currentColor" stroke-width="2" stroke-linecap="round" stroke-linejoin="round"><path d="M7 4.5h10v15H7z"/><path d="M10 9h4M10 12h4"/></symbol>
  <symbol id="i-task" viewBox="0 0 24 24" fill="none" stroke="currentColor" stroke-width="2.2" stroke-linecap="round" stroke-linejoin="round"><path d="M5 12.5l4 4 10-10"/></symbol>
  <symbol id="i-robot" viewBox="0 0 24 24" fill="none" stroke="currentColor" stroke-width="1.8" stroke-linecap="round" stroke-linejoin="round"><rect x="5" y="9" width="14" height="10" rx="2.5"/><path d="M12 9V6M9.5 6.5h5"/><circle cx="9.5" cy="14" r="1.3" fill="currentColor" stroke="none"/><circle cx="14.5" cy="14" r="1.3" fill="currentColor" stroke="none"/><path d="M3 12h2M19 12h2"/></symbol>
  <symbol id="i-gear" viewBox="0 0 24 24" fill="none" stroke="currentColor" stroke-width="1.7" stroke-linecap="round" stroke-linejoin="round"><circle cx="12" cy="12" r="3"/><path d="M12 3.5v2.2M12 18.3v2.2M20.5 12h-2.2M5.7 12H3.5M17.8 6.2l-1.5 1.5M7.7 16.3l-1.5 1.5M17.8 17.8l-1.5-1.5M7.7 7.7 6.2 6.2"/></symbol>
  <symbol id="i-trash" viewBox="0 0 24 24" fill="none" stroke="currentColor" stroke-width="1.8" stroke-linecap="round" stroke-linejoin="round"><path d="M5 7h14M9.5 7V5a1 1 0 0 1 1-1h3a1 1 0 0 1 1 1v2M7 7l1 13h8l1-13"/></symbol>
  <symbol id="i-bold" viewBox="0 0 24 24" fill="none" stroke="currentColor" stroke-width="1.8" stroke-linecap="round" stroke-linejoin="round"><path d="M7 5h7a3.5 3.5 0 0 1 0 7H7zM7 12h7.5a3.5 3.5 0 0 1 0 7H7z"/></symbol>
  <symbol id="i-italic" viewBox="0 0 24 24" fill="none" stroke="currentColor" stroke-width="1.8" stroke-linecap="round" stroke-linejoin="round"><path d="M10 5h7M7 19h7M13.5 5 10.5 19"/></symbol>
  <symbol id="i-code" viewBox="0 0 24 24" fill="none" stroke="currentColor" stroke-width="1.8" stroke-linecap="round" stroke-linejoin="round"><path d="M9 6 3.5 12 9 18M15 6l5.5 6-5.5 6"/></symbol>
  <symbol id="i-quote" viewBox="0 0 24 24" fill="none" stroke="currentColor" stroke-width="1.8" stroke-linecap="round" stroke-linejoin="round"><path d="M6.5 9.5c-2 0-3 1.4-3 3.3 0 1.8 1.2 3 2.8 3 1.6 0 2.7-1.2 2.7-2.8 0-1.5-1-2.6-2.3-2.6-.1 0-.3 0-.4.02.2-1.6 1.3-2.7 2.9-3.1M16 9.5c-2 0-3 1.4-3 3.3 0 1.8 1.2 3 2.8 3 1.6 0 2.7-1.2 2.7-2.8 0-1.5-1-2.6-2.3-2.6-.1 0-.3 0-.4.02.2-1.6 1.3-2.7 2.9-3.1"/></symbol>
  <symbol id="i-reply" viewBox="0 0 24 24" fill="none" stroke="currentColor" stroke-width="1.8" stroke-linecap="round" stroke-linejoin="round"><path d="M9 8 4 12.5 9 17"/><path d="M4 12.5h9.5a6 6 0 0 1 6 6V19"/></symbol>
  <symbol id="i-pencil" viewBox="0 0 24 24" fill="none" stroke="currentColor" stroke-width="1.8" stroke-linecap="round" stroke-linejoin="round"><path d="M4 20l.9-4 10-10 3.1 3.1-10 10z"/><path d="M13.5 6.5 16.6 9.6"/></symbol>
  <symbol id="i-lock" viewBox="0 0 24 24" fill="none" stroke="currentColor" stroke-width="1.8" stroke-linecap="round" stroke-linejoin="round"><rect x="5.5" y="11" width="13" height="9" rx="2"/><path d="M8 11V7.5a4 4 0 0 1 8 0V11"/></symbol>
  <!-- Octicons "git-branch" (https://primer.style/foundations/icons/git-branch-16), MIT licensed. -->
  <symbol id="i-branch" viewBox="0 0 16 16" fill="currentColor"><path d="M9.5 3.25a2.25 2.25 0 1 1 3 2.122V6A2.5 2.5 0 0 1 10 8.5H6a1 1 0 0 0-1 1v1.128a2.251 2.251 0 1 1-1.5 0V5.372a2.25 2.25 0 1 1 1.5 0v1.836A2.493 2.493 0 0 1 6 7h4a1 1 0 0 0 1-1v-.628A2.25 2.25 0 0 1 9.5 3.25Zm-6 0a.75.75 0 1 0 1.5 0 .75.75 0 0 0-1.5 0Zm8.25-.75a.75.75 0 1 0 0 1.5.75.75 0 0 0 0-1.5ZM4.25 12a.75.75 0 1 0 0 1.5.75.75 0 0 0 0-1.5Z"/></symbol>
</svg>
